<svg xmlns="http://www.w3.org/2000/svg" width="1200" height="800" viewBox="0 0 1200 800" role="img" aria-label="Close-up of moss being lifted from a lawn with a spring-tine rake.">
  <defs>
    <linearGradient id="g" x1="0" x2="0" y1="0" y2="1">
      <stop offset="0%" stop-color="#88b788"/>
      <stop offset="100%" stop-color="#2F7A4C"/>
    </linearGradient>
  </defs>
  <rect width="1200" height="800" fill="url(#g)"/>
  <g stroke="#111" stroke-width="3" fill="none" opacity="0.8">
    <path d="M200,650 C 400,600 800,500 1000,450"/>
    <path d="M250,680 C 420,640 820,560 1020,520"/>
  </g>
  <g>
    <rect x="150" y="180" width="28" height="420" fill="#C9C1B5" stroke="#111" stroke-width="3"/>
    <rect x="178" y="190" width="450" height="30" fill="#B74E2A" stroke="#111" stroke-width="3"/>
    <g stroke="#111" stroke-width="3">
      <line x1="200" y1="220" x2="220" y2="660" />
      <line x1="240" y1="220" x2="250" y2="660" />
      <line x1="280" y1="220" x2="280" y2="660" />
      <line x1="320" y1="220" x2="310" y2="660" />
      <line x1="360" y1="220" x2="340" y2="660" />
      <line x1="400" y1="220" x2="370" y2="660" />
      <line x1="440" y1="220" x2="400" y2="660" />
      <line x1="480" y1="220" x2="430" y2="660" />
      <line x1="520" y1="220" x2="460" y2="660" />
    </g>
  </g>
  <g opacity="0.2">
    <circle cx="800" cy="500" r="120" fill="#000"/>
  </g>
</svg>
